Saira-PARAMETRIC-JUN_YOPQ10.ufo
<glyph name="quotesingle" format="2">
  <advance width="157"/>
  <unicode hex="0027"/>
  <anchor x="0" y="0" name="#entry"/>
  <anchor x="176" y="0" name="#exit"/>
  <outline>
    <contour>
      <point x="50" y="444" type="line"/>
      <point x="106" y="444" type="line"/>
      <point x="118" y="612" type="line"/>
      <point x="118" y="688" type="line"/>
      <point x="39" y="688" type="line"/>
      <point x="39" y="612" type="line"/>
    </contour>
  </outline>
</glyph>
<glyph name="plus" format="2">
  <advance width="540"/>
  <unicode hex="002B"/>
  <outline>
    <contour>
      <point x="236.152" y="52.457" type="line"/>
      <point x="302.391" y="52.457" type="line"/>
      <point x="302.391" y="219.609" type="line"/>
      <point x="470" y="219.609" type="line"/>
      <point x="470" y="285.848" type="line"/>
      <point x="302.391" y="285.848" type="line"/>
      <point x="302.391" y="452.457" type="line"/>
      <point x="236.152" y="452.457" type="line"/>
      <point x="236.152" y="285.848" type="line"/>
      <point x="70" y="285.848" type="line"/>
      <point x="70" y="219.609" type="line"/>
      <point x="236.152" y="219.609" type="line"/>
    </contour>
  </outline>
</glyph>
<glyph name="comma" format="2">
  <advance width="210"/>
  <unicode hex="002C"/>
  <outline>
    <contour>
      <point x="39" y="-100" type="line"/>
      <point x="139" y="-100"/>
      <point x="160" y="-83"/>
      <point x="160" y="0" type="curve" smooth="yes"/>
      <point x="160" y="22" type="line"/>
      <point x="50" y="22" type="line"/>
      <point x="50" y="0" type="line"/>
      <point x="97" y="0" type="line"/>
      <point x="97" y="-22" type="line" smooth="yes"/>
      <point x="97" y="-77"/>
      <point x="87" y="-88"/>
      <point x="39" y="-88" type="curve"/>
    </contour>
  </outline>
</glyph>
<glyph name="period" format="2">
  <advance width="210"/>
  <unicode hex="002E"/>
  <outline>
    <contour>
      <point x="50" y="0" type="line"/>
      <point x="160" y="0" type="line"/>
      <point x="160" y="22" type="line"/>
      <point x="50" y="22" type="line"/>
    </contour>
  </outline>
</glyph>
<glyph name="four" format="2">
  <advance width="642.34783"/>
  <unicode hex="0034"/>
  <outline>
    <contour>
      <point x="409.196" y="0" type="line"/>
      <point x="495.196" y="0" type="line"/>
      <point x="495.196" y="160.783" type="line"/>
      <point x="596.587" y="160.783" type="line"/>
      <point x="596.587" y="235" type="line"/>
      <point x="495.196" y="235" type="line"/>
      <point x="495.196" y="480.109" type="line"/>
      <point x="427.587" y="480.109" type="line"/>
      <point x="409.652" y="235" type="line"/>
      <point x="141.652" y="235" type="line"/>
      <point x="409.87" y="688" type="line"/>
      <point x="314.609" y="688" type="line"/>
      <point x="46.391" y="227.109" type="line"/>
      <point x="46.391" y="160.783" type="line"/>
      <point x="409.196" y="160.783" type="line"/>
    </contour>
  </outline>
</glyph>
<glyph name="five" format="2">
  <advance width="619.26087"/>
  <unicode hex="0035"/>
  <outline>
    <contour>
      <point x="287.261" y="-8" type="curve" smooth="yes"/>
      <point x="501.413" y="-8"/>
      <point x="549.587" y="51.065"/>
      <point x="549.587" y="212.696" type="curve" smooth="yes"/>
      <point x="549.587" y="342.326"/>
      <point x="516.804" y="409.217"/>
      <point x="321.478" y="409.217" type="curve" smooth="yes"/>
      <point x="272.152" y="409.217"/>
      <point x="208.522" y="405.217"/>
      <point x="169.326" y="399.391" type="curve"/>
      <point x="169.326" y="613.239" type="line"/>
      <point x="498.587" y="613.239" type="line"/>
      <point x="498.587" y="688" type="line"/>
      <point x="89.848" y="688" type="line"/>
      <point x="89.848" y="321.63" type="line"/>
      <point x="154.413" y="329.543"/>
      <point x="226.478" y="335"/>
      <point x="267.261" y="335" type="curve" smooth="yes"/>
      <point x="426.674" y="335"/>
      <point x="462.5" y="319.978"/>
      <point x="462.5" y="202.978" type="curve" smooth="yes"/>
      <point x="462.5" y="97.435"/>
      <point x="430.935" y="66.217"/>
      <point x="280.739" y="66.217" type="curve" smooth="yes"/>
      <point x="233.652" y="66.217"/>
      <point x="152.565" y="71.217"/>
      <point x="81.848" y="78.217" type="curve"/>
      <point x="81.848" y="9.261" type="line"/>
      <point x="138.022" y="-0.913"/>
      <point x="224.913" y="-8"/>
    </contour>
  </outline>
</glyph>
<glyph name="less" format="2">
  <advance width="541"/>
  <unicode hex="003C"/>
  <outline>
    <contour>
      <point x="471" y="45" type="line"/>
      <point x="471" y="114.609" type="line"/>
      <point x="137.478" y="253" type="line"/>
      <point x="471" y="390.848" type="line"/>
      <point x="471" y="461" type="line"/>
      <point x="71" y="292.043" type="line"/>
      <point x="71" y="213.413" type="line"/>
    </contour>
  </outline>
</glyph>
<glyph name="at" format="2">
  <advance width="929.97826"/>
  <unicode hex="0040"/>
  <outline>
    <contour>
      <point x="464.717" y="-108" type="curve" smooth="yes"/>
      <point x="563.435" y="-108"/>
      <point x="607.174" y="-106.457"/>
      <point x="649.587" y="-104.457" type="curve"/>
      <point x="649.587" y="-60.413" type="line"/>
      <point x="627.109" y="-61.87"/>
      <point x="528.087" y="-63.957"/>
      <point x="464.717" y="-63.957" type="curve" smooth="yes"/>
      <point x="403.413" y="-63.957"/>
      <point x="353.391" y="-62.587"/>
      <point x="321.783" y="-60.13" type="curve" smooth="yes"/>
      <point x="136.435" y="-46.022"/>
      <point x="129.522" y="14.37"/>
      <point x="129.522" y="294" type="curve" smooth="yes"/>
      <point x="129.522" y="557.87"/>
      <point x="135.891" y="626.87"/>
      <point x="286.391" y="644.957" type="curve" smooth="yes"/>
      <point x="330.565" y="650.5"/>
      <point x="388.739" y="652.413"/>
      <point x="463.717" y="652.413" type="curve" smooth="yes"/>
      <point x="547.848" y="652.413"/>
      <point x="610.37" y="650.5"/>
      <point x="656.087" y="642.783" type="curve" smooth="yes"/>
      <point x="793.087" y="621.978"/>
      <point x="798.37" y="549.174"/>
      <point x="798.37" y="294" type="curve" smooth="yes"/>
      <point x="798.37" y="119.957"/>
      <point x="778.804" y="117.5"/>
      <point x="728.522" y="117.5" type="curve" smooth="yes"/>
      <point x="649.587" y="117.5" type="line"/>
      <point x="649.587" y="349.848" type="line" smooth="yes"/>
      <point x="649.587" y="475.5"/>
      <point x="626.935" y="518"/>
      <point x="469.087" y="518" type="curve" smooth="yes"/>
      <point x="414.261" y="518"/>
      <point x="356.087" y="513.457"/>
      <point x="308.848" y="506.37" type="curve"/>
      <point x="308.848" y="447.283" type="line"/>
      <point x="333.87" y="451.109"/>
      <point x="407.022" y="455.565"/>
      <point x="443.587" y="455.565" type="curve" smooth="yes"/>
      <point x="559.261" y="455.565"/>
      <point x="574.913" y="448.826"/>
      <point x="574.913" y="349.283" type="curve" smooth="yes"/>
      <point x="574.913" y="322.065" type="line"/>
      <point x="522.065" y="324.065"/>
      <point x="440.283" y="326.065"/>
      <point x="411.739" y="326.065" type="curve" smooth="yes"/>
      <point x="307.478" y="326.065"/>
      <point x="280.022" y="294.609"/>
      <point x="280.022" y="196.261" type="curve" smooth="yes"/>
      <point x="280.022" y="96.609"/>
      <point x="325.217" y="68"/>
      <point x="425.609" y="68" type="curve" smooth="yes"/>
      <point x="481.804" y="68"/>
      <point x="545.391" y="75"/>
      <point x="572.739" y="136.761" type="curve"/>
      <point x="578.37" y="136.761" type="line"/>
      <point x="582.457" y="75" type="line"/>
      <point x="717.065" y="75" type="line" smooth="yes"/>
      <point x="812.326" y="75"/>
      <point x="845.957" y="80.739"/>
      <point x="845.957" y="294" type="curve" smooth="yes"/>
      <point x="845.957" y="645.717"/>
      <point x="838.239" y="696"/>
      <point x="464.717" y="696" type="curve" smooth="yes"/>
      <point x="91.196" y="696"/>
      <point x="83.478" y="643.543"/>
      <point x="83.478" y="294" type="curve" smooth="yes"/>
      <point x="83.478" y="-55"/>
      <point x="91.196" y="-108"/>
    </contour>
    <contour>
      <point x="450.696" y="126.63" type="curve" smooth="yes"/>
      <point x="367.457" y="126.63"/>
      <point x="352.522" y="139.37"/>
      <point x="352.522" y="201.152" type="curve" smooth="yes"/>
      <point x="352.522" y="265.13"/>
      <point x="365.543" y="274.5"/>
      <point x="430.609" y="274.5" type="curve" smooth="yes"/>
      <point x="574.913" y="274.5" type="line"/>
      <point x="574.913" y="246.391" type="line" smooth="yes"/>
      <point x="574.913" y="152.022"/>
      <point x="547.5" y="126.63"/>
    </contour>
  </outline>
</glyph>
<glyph name="A" format="2">
  <advance width="550"/>
  <unicode hex="0041"/>
  <anchor x="275" y="0" name="bottom"/>
  <anchor x="495" y="10" name="ogonek"/>
  <anchor x="275" y="688" name="top"/>
  <outline>
    <contour>
      <point x="10" y="0" type="line"/>
      <point x="21" y="0" type="line"/>
      <point x="236" y="643" type="line"/>
      <point x="242" y="643" type="line"/>
      <point x="453" y="0" type="line"/>
      <point x="540" y="0" type="line"/>
      <point x="310" y="688" type="line"/>
      <point x="240" y="688" type="line"/>
    </contour>
    <contour>
      <point x="92" y="222" type="line"/>
      <point x="414" y="222" type="line"/>
      <point x="410" y="232" type="line"/>
      <point x="95" y="232" type="line"/>
    </contour>
  </outline>
</glyph>
<glyph name="B" format="2">
  <advance width="699"/>
  <unicode hex="0042"/>
  <anchor x="341.283" y="0" name="bottom"/>
  <anchor x="341.283" y="688" name="top"/>
  <outline>
    <contour>
      <point x="100" y="0" type="line"/>
      <point x="366" y="0" type="line" smooth="yes"/>
      <point x="561" y="0"/>
      <point x="614" y="36"/>
      <point x="614" y="170" type="curve" smooth="yes"/>
      <point x="614" y="177" type="line" smooth="yes"/>
      <point x="614" y="314"/>
      <point x="560" y="353"/>
      <point x="366" y="353" type="curve" smooth="yes"/>
      <point x="166" y="353" type="line"/>
      <point x="166" y="345" type="line"/>
      <point x="366" y="345" type="line" smooth="yes"/>
      <point x="507" y="345"/>
      <point x="532" y="319"/>
      <point x="532" y="191" type="curve" smooth="yes"/>
      <point x="532" y="156" type="line" smooth="yes"/>
      <point x="532" y="32"/>
      <point x="507" y="10"/>
      <point x="366" y="10" type="curve" smooth="yes"/>
      <point x="145" y="10" type="line"/>
      <point x="182" y="7" type="line"/>
      <point x="182" y="683" type="line"/>
      <point x="145" y="678" type="line"/>
      <point x="352" y="678" type="line" smooth="yes"/>
      <point x="493" y="678"/>
      <point x="518" y="657"/>
      <point x="518" y="538" type="curve" smooth="yes"/>
      <point x="518" y="503" type="line" smooth="yes"/>
      <point x="518" y="380"/>
      <point x="493" y="355"/>
      <point x="352" y="355" type="curve" smooth="yes"/>
      <point x="166" y="355" type="line"/>
      <point x="166" y="347" type="line"/>
      <point x="352" y="347" type="line" smooth="yes"/>
      <point x="546" y="347"/>
      <point x="600" y="385"/>
      <point x="600" y="517" type="curve" smooth="yes"/>
      <point x="600" y="524" type="line" smooth="yes"/>
      <point x="600" y="653"/>
      <point x="547" y="688"/>
      <point x="352" y="688" type="curve" smooth="yes"/>
      <point x="100" y="688" type="line"/>
    </contour>
  </outline>
</glyph>
<glyph name="C" format="2">
  <advance width="573"/>
  <unicode hex="0043"/>
  <anchor x="284" y="0" name="bottom"/>
  <anchor x="284" y="688" name="top"/>
  <outline>
    <contour>
      <point x="336" y="-8" type="curve" smooth="yes"/>
      <point x="388" y="-8"/>
      <point x="445" y="-3"/>
      <point x="478" y="5" type="curve"/>
      <point x="478" y="14" type="line"/>
      <point x="444" y="7"/>
      <point x="387" y="2"/>
      <point x="336" y="2" type="curve" smooth="yes"/>
      <point x="170" y="2"/>
      <point x="158" y="23"/>
      <point x="158" y="310" type="curve" smooth="yes"/>
      <point x="158" y="378" type="line" smooth="yes"/>
      <point x="158" y="665"/>
      <point x="170" y="686"/>
      <point x="336" y="686" type="curve" smooth="yes"/>
      <point x="384" y="686"/>
      <point x="435" y="681"/>
      <point x="474" y="673" type="curve"/>
      <point x="474" y="682" type="line"/>
      <point x="440" y="690"/>
      <point x="383" y="696"/>
      <point x="336" y="696" type="curve" smooth="yes"/>
      <point x="115" y="696"/>
      <point x="76" y="644"/>
      <point x="76" y="349" type="curve" smooth="yes"/>
      <point x="76" y="339" type="line" smooth="yes"/>
      <point x="76" y="44"/>
      <point x="115" y="-8"/>
    </contour>
  </outline>
</glyph>
<glyph name="D" format="2">
  <advance width="680"/>
  <unicode hex="0044"/>
  <anchor x="340" y="0" name="bottom"/>
  <anchor x="170" y="344" name="center"/>
  <anchor x="340" y="688" name="top"/>
  <outline>
    <contour>
      <point x="100" y="0" type="line"/>
      <point x="326" y="0" type="line" smooth="yes"/>
      <point x="562" y="0"/>
      <point x="604" y="51"/>
      <point x="604" y="339" type="curve" smooth="yes"/>
      <point x="604" y="349" type="line" smooth="yes"/>
      <point x="604" y="637"/>
      <point x="562" y="688"/>
      <point x="326" y="688" type="curve" smooth="yes"/>
      <point x="100" y="688" type="line"/>
    </contour>
    <contour>
      <point x="182" y="5" type="line"/>
      <point x="182" y="680" type="line"/>
      <point x="145" y="675" type="line"/>
      <point x="326" y="675" type="line" smooth="yes"/>
      <point x="509" y="675"/>
      <point x="522" y="653"/>
      <point x="522" y="377" type="curve" smooth="yes"/>
      <point x="522" y="311" type="line" smooth="yes"/>
      <point x="522" y="31"/>
      <point x="509" y="10"/>
      <point x="326" y="10" type="curve" smooth="yes"/>
      <point x="145" y="10" type="line"/>
    </contour>
  </outline>
</glyph>
<glyph name="E" format="2">
  <advance width="567"/>
  <unicode hex="0045"/>
  <anchor x="288" y="0" name="bottom"/>
  <anchor x="518" y="10" name="ogonek"/>
  <anchor x="288" y="688" name="top"/>
  <anchor x="20" y="688" name="topleft"/>
  <outline>
    <contour>
      <point x="145" y="353" type="line"/>
      <point x="145" y="343" type="line"/>
      <point x="470" y="343" type="line"/>
      <point x="470" y="353" type="line"/>
    </contour>
    <contour>
      <point x="182" y="5" type="line"/>
      <point x="182" y="683" type="line"/>
      <point x="145" y="678" type="line"/>
      <point x="517" y="678" type="line"/>
      <point x="517" y="688" type="line"/>
      <point x="100" y="688" type="line"/>
      <point x="100" y="0" type="line"/>
      <point x="517" y="0" type="line"/>
      <point x="517" y="10" type="line"/>
      <point x="145" y="10" type="line"/>
    </contour>
  </outline>
</glyph>
<glyph name="F" format="2">
  <advance width="547"/>
  <unicode hex="0046"/>
  <anchor x="278" y="0" name="bottom"/>
  <anchor x="278" y="688" name="top"/>
  <outline>
    <contour>
      <point x="145" y="343" type="line"/>
      <point x="145" y="333" type="line"/>
      <point x="460" y="333" type="line"/>
      <point x="460" y="343" type="line"/>
    </contour>
    <contour>
      <point x="182" y="0" type="line"/>
      <point x="182" y="683" type="line"/>
      <point x="145" y="678" type="line"/>
      <point x="507" y="678" type="line"/>
      <point x="507" y="688" type="line"/>
      <point x="100" y="688" type="line"/>
      <point x="100" y="0" type="line"/>
    </contour>
  </outline>
</glyph>
<glyph name="G" format="2">
  <advance width="679"/>
  <unicode hex="0047"/>
  <anchor x="340" y="0" name="bottom"/>
  <anchor x="340" y="688" name="top"/>
  <outline>
    <contour>
      <point x="398" y="-8" type="curve" smooth="yes"/>
      <point x="467" y="-8"/>
      <point x="542" y="1"/>
      <point x="584" y="15" type="curve"/>
      <point x="584" y="340" type="line"/>
      <point x="345" y="340" type="line"/>
      <point x="345" y="330" type="line"/>
      <point x="504" y="330" type="line"/>
      <point x="504" y="10" type="line"/>
      <point x="468" y="5"/>
      <point x="431" y="2"/>
      <point x="393" y="2" type="curve" smooth="yes"/>
      <point x="174" y="2"/>
      <point x="158" y="23"/>
      <point x="158" y="310" type="curve" smooth="yes"/>
      <point x="158" y="378" type="line" smooth="yes"/>
      <point x="158" y="665"/>
      <point x="174" y="686"/>
      <point x="393" y="686" type="curve" smooth="yes"/>
      <point x="461" y="686"/>
      <point x="528" y="681"/>
      <point x="579" y="673" type="curve"/>
      <point x="579" y="682" type="line"/>
      <point x="535" y="690"/>
      <point x="457" y="696"/>
      <point x="393" y="696" type="curve" smooth="yes"/>
      <point x="124" y="696"/>
      <point x="76" y="644"/>
      <point x="76" y="349" type="curve" smooth="yes"/>
      <point x="76" y="339" type="line" smooth="yes"/>
      <point x="76" y="44"/>
      <point x="125" y="-8"/>
    </contour>
  </outline>
</glyph>
<glyph name="H" format="2">
  <advance width="714"/>
  <unicode hex="0048"/>
  <anchor x="357" y="0" name="bottom"/>
  <anchor x="357" y="550" name="center"/>
  <anchor x="357" y="688" name="top"/>
  <anchor x="20" y="688" name="topleft"/>
  <outline>
    <contour>
      <point x="100" y="0" type="line"/>
      <point x="182" y="0" type="line"/>
      <point x="182" y="347" type="line"/>
      <point x="145" y="342" type="line"/>
      <point x="569" y="342" type="line"/>
      <point x="532" y="347" type="line"/>
      <point x="532" y="0" type="line"/>
      <point x="614" y="0" type="line"/>
      <point x="614" y="688" type="line"/>
      <point x="532" y="688" type="line"/>
      <point x="532" y="347" type="line"/>
      <point x="569" y="352" type="line"/>
      <point x="145" y="352" type="line"/>
      <point x="182" y="347" type="line"/>
      <point x="182" y="688" type="line"/>
      <point x="100" y="688" type="line"/>
    </contour>
  </outline>
</glyph>
<glyph name="J" format="2">
  <advance width="319"/>
  <unicode hex="004A"/>
  <anchor x="160" y="0" name="bottom"/>
  <anchor x="160" y="688" name="top"/>
  <outline>
    <contour>
      <point x="219" y="688" type="line"/>
      <point x="137" y="688" type="line"/>
      <point x="137" y="141" type="line" smooth="yes"/>
      <point x="137" y="28"/>
      <point x="116" y="6"/>
      <point x="5" y="6" type="curve"/>
      <point x="5" y="-4" type="line"/>
      <point x="172" y="-4"/>
      <point x="219" y="29"/>
      <point x="219" y="148" type="curve" smooth="yes"/>
    </contour>
  </outline>
</glyph>
<glyph name="K" format="2">
  <advance width="585"/>
  <unicode hex="004B"/>
  <anchor x="275" y="0" name="bottom"/>
  <anchor x="275" y="688" name="top"/>
  <outline>
    <contour>
      <point x="177" y="345" type="line"/>
      <point x="233" y="345" type="line"/>
      <point x="477" y="0" type="line"/>
      <point x="575" y="0" type="line"/>
      <point x="328" y="350" type="line"/>
      <point x="573" y="688" type="line"/>
      <point x="561" y="688" type="line"/>
      <point x="319" y="355" type="line"/>
      <point x="177" y="355" type="line"/>
    </contour>
    <contour>
      <point x="100" y="0" type="line"/>
      <point x="182" y="0" type="line"/>
      <point x="182" y="688" type="line"/>
      <point x="100" y="688" type="line"/>
    </contour>
  </outline>
</glyph>
<glyph name="L" format="2">
  <advance width="507"/>
  <unicode hex="004C"/>
  <anchor x="263" y="0" name="bottom"/>
  <anchor x="263" y="344" name="center"/>
  <anchor x="263" y="688" name="top"/>
  <anchor x="506" y="688" name="topright"/>
  <outline>
    <contour>
      <point x="100" y="0" type="line"/>
      <point x="487" y="0" type="line"/>
      <point x="487" y="10" type="line"/>
      <point x="145" y="10" type="line"/>
      <point x="182" y="5" type="line"/>
      <point x="182" y="688" type="line"/>
      <point x="100" y="688" type="line"/>
    </contour>
  </outline>
</glyph>
<glyph name="M" format="2">
  <advance width="744"/>
  <unicode hex="004D"/>
  <guideline x="365" y="61" angle="288.1701" name=""/>
  <outline>
    <contour>
      <point x="100" y="0" type="line"/>
      <point x="110" y="0" type="line"/>
      <point x="110" y="609" type="line"/>
      <point x="303" y="0" type="line"/>
      <point x="355" y="0" type="line"/>
      <point x="562" y="609" type="line"/>
      <point x="562" y="0" type="line"/>
      <point x="644" y="0" type="line"/>
      <point x="644" y="688" type="line"/>
      <point x="578" y="688" type="line"/>
      <point x="365" y="61" type="line"/>
      <point x="166" y="688" type="line"/>
      <point x="100" y="688" type="line"/>
    </contour>
  </outline>
</glyph>
<glyph name="N" format="2">
  <advance width="570"/>
  <unicode hex="004E"/>
  <anchor x="213" y="0" name="bottom"/>
  <anchor x="213" y="688" name="top"/>
  <outline>
    <contour>
      <point x="100" y="0" type="line"/>
      <point x="110" y="0" type="line"/>
      <point x="110" y="606" type="line"/>
      <point x="411" y="0" type="line"/>
      <point x="470" y="0" type="line"/>
      <point x="470" y="688" type="line"/>
      <point x="460" y="688" type="line"/>
      <point x="460" y="82" type="line"/>
      <point x="159" y="688" type="line"/>
      <point x="100" y="688" type="line"/>
    </contour>
  </outline>
</glyph>
<glyph name="O" format="2">
  <advance width="708"/>
  <unicode hex="004F"/>
  <anchor x="354" y="-2" name="bottom"/>
  <anchor x="354" y="344" name="center"/>
  <anchor x="637" y="10" name="ogonek"/>
  <anchor x="354" y="688" name="top"/>
  <anchor x="20" y="688" name="topleft"/>
  <anchor x="688" y="688" name="topright"/>
  <outline>
    <contour>
      <point x="354" y="-8" type="curve" smooth="yes"/>
      <point x="590" y="-8"/>
      <point x="632" y="44"/>
      <point x="632" y="339" type="curve" smooth="yes"/>
      <point x="632" y="349" type="line" smooth="yes"/>
      <point x="632" y="644"/>
      <point x="590" y="696"/>
      <point x="354" y="696" type="curve" smooth="yes"/>
      <point x="118" y="696"/>
      <point x="76" y="644"/>
      <point x="76" y="349" type="curve" smooth="yes"/>
      <point x="76" y="339" type="line" smooth="yes"/>
      <point x="76" y="44"/>
      <point x="118" y="-8"/>
    </contour>
    <contour>
      <point x="354" y="2" type="curve" smooth="yes"/>
      <point x="171" y="2"/>
      <point x="158" y="23"/>
      <point x="158" y="302" type="curve" smooth="yes"/>
      <point x="158" y="386" type="line" smooth="yes"/>
      <point x="158" y="665"/>
      <point x="171" y="686"/>
      <point x="354" y="686" type="curve" smooth="yes"/>
      <point x="537" y="686"/>
      <point x="550" y="665"/>
      <point x="550" y="386" type="curve" smooth="yes"/>
      <point x="550" y="302" type="line" smooth="yes"/>
      <point x="550" y="23"/>
      <point x="537" y="2"/>
    </contour>
  </outline>
</glyph>
<glyph name="P" format="2">
  <advance width="585"/>
  <unicode hex="0050"/>
  <anchor x="293" y="0" name="bottom"/>
  <anchor x="293" y="688" name="top"/>
  <outline>
    <contour>
      <point x="100" y="0" type="line"/>
      <point x="182" y="0" type="line"/>
      <point x="182" y="683" type="line"/>
      <point x="145" y="678" type="line"/>
      <point x="307" y="678" type="line" smooth="yes"/>
      <point x="456" y="678"/>
      <point x="473" y="660"/>
      <point x="473" y="500" type="curve" smooth="yes"/>
      <point x="473" y="467" type="line" smooth="yes"/>
      <point x="473" y="307"/>
      <point x="456" y="289"/>
      <point x="307" y="289" type="curve" smooth="yes"/>
      <point x="166" y="289" type="line"/>
      <point x="166" y="279" type="line"/>
      <point x="307" y="279" type="line" smooth="yes"/>
      <point x="518" y="279"/>
      <point x="555" y="310"/>
      <point x="555" y="480" type="curve" smooth="yes"/>
      <point x="555" y="487" type="line" smooth="yes"/>
      <point x="555" y="657"/>
      <point x="518" y="688"/>
      <point x="307" y="688" type="curve" smooth="yes"/>
      <point x="100" y="688" type="line"/>
    </contour>
  </outline>
</glyph>
<glyph name="R" format="2">
  <advance width="636"/>
  <unicode hex="0052"/>
  <anchor x="318" y="0" name="bottom"/>
  <anchor x="318" y="688" name="top"/>
  <outline>
    <contour>
      <point x="100" y="0" type="line"/>
      <point x="182" y="0" type="line"/>
      <point x="182" y="683" type="line"/>
      <point x="145" y="678" type="line"/>
      <point x="317" y="678" type="line" smooth="yes"/>
      <point x="466" y="678"/>
      <point x="483" y="661"/>
      <point x="483" y="510" type="curve" smooth="yes"/>
      <point x="483" y="477" type="line" smooth="yes"/>
      <point x="483" y="326"/>
      <point x="466" y="309"/>
      <point x="317" y="309" type="curve" smooth="yes"/>
      <point x="166" y="309" type="line"/>
      <point x="166" y="299" type="line"/>
      <point x="317" y="299" type="line" smooth="yes"/>
      <point x="528" y="299"/>
      <point x="565" y="327"/>
      <point x="565" y="490" type="curve" smooth="yes"/>
      <point x="565" y="497" type="line" smooth="yes"/>
      <point x="565" y="659"/>
      <point x="528" y="688"/>
      <point x="317" y="688" type="curve" smooth="yes"/>
      <point x="100" y="688" type="line"/>
    </contour>
    <contour>
      <point x="482" y="0" type="line"/>
      <point x="571" y="0" type="line"/>
      <point x="445" y="311" type="line"/>
      <point x="362" y="305" type="line"/>
    </contour>
  </outline>
</glyph>
<glyph name="S" format="2">
  <advance width="636"/>
  <unicode hex="0053"/>
  <anchor x="318" y="0" name="bottom"/>
  <anchor x="318" y="688" name="top"/>
  <outline>
    <contour>
      <point x="323" y="-8" type="curve" smooth="yes"/>
      <point x="507" y="-8"/>
      <point x="565" y="36"/>
      <point x="565" y="178" type="curve" smooth="yes"/>
      <point x="565" y="314"/>
      <point x="528" y="363"/>
      <point x="418" y="375" type="curve" smooth="yes"/>
      <point x="236" y="395" type="line" smooth="yes"/>
      <point x="162" y="404"/>
      <point x="153" y="417"/>
      <point x="153" y="516" type="curve" smooth="yes"/>
      <point x="153" y="647"/>
      <point x="189" y="686"/>
      <point x="309" y="686" type="curve" smooth="yes"/>
      <point x="378" y="686"/>
      <point x="468" y="679"/>
      <point x="537" y="669" type="curve"/>
      <point x="537" y="677" type="line"/>
      <point x="458" y="688"/>
      <point x="369" y="696"/>
      <point x="313" y="696" type="curve" smooth="yes"/>
      <point x="130" y="696"/>
      <point x="71" y="652"/>
      <point x="71" y="516" type="curve" smooth="yes"/>
      <point x="71" y="383"/>
      <point x="110" y="331"/>
      <point x="216" y="319" type="curve" smooth="yes"/>
      <point x="398" y="299" type="line" smooth="yes"/>
      <point x="475" y="291"/>
      <point x="483" y="278"/>
      <point x="483" y="176" type="curve" smooth="yes"/>
      <point x="483" y="43"/>
      <point x="445" y="2"/>
      <point x="325" y="2" type="curve" smooth="yes"/>
      <point x="250" y="2"/>
      <point x="152" y="9"/>
      <point x="77" y="19" type="curve"/>
      <point x="77" y="11" type="line"/>
      <point x="165" y="-1"/>
      <point x="262" y="-8"/>
    </contour>
  </outline>
</glyph>
<glyph name="T" format="2">
  <advance width="486"/>
  <unicode hex="0054"/>
  <anchor x="243" y="0" name="bottom"/>
  <anchor x="243" y="344" name="center"/>
  <anchor x="243" y="688" name="top"/>
  <outline>
    <contour>
      <point x="202" y="0" type="line"/>
      <point x="284" y="0" type="line"/>
      <point x="284" y="683" type="line"/>
      <point x="249" y="678" type="line"/>
      <point x="476" y="678" type="line"/>
      <point x="476" y="688" type="line"/>
      <point x="10" y="688" type="line"/>
      <point x="10" y="678" type="line"/>
      <point x="237" y="678" type="line"/>
      <point x="202" y="683" type="line"/>
    </contour>
  </outline>
</glyph>
<glyph name="U" format="2">
  <advance width="632"/>
  <unicode hex="0055"/>
  <anchor x="316" y="0" name="bottom"/>
  <anchor x="569" y="10" name="ogonek"/>
  <anchor x="316" y="688" name="top"/>
  <anchor x="612" y="688" name="topright"/>
  <outline>
    <contour>
      <point x="316" y="-8" type="curve" smooth="yes"/>
      <point x="496" y="-8"/>
      <point x="537" y="53"/>
      <point x="537" y="326" type="curve" smooth="yes"/>
      <point x="537" y="688" type="line"/>
      <point x="527" y="688" type="line"/>
      <point x="527" y="322" type="line" smooth="yes"/>
      <point x="527" y="75"/>
      <point x="487" y="2"/>
      <point x="352" y="2" type="curve" smooth="yes"/>
      <point x="208" y="2"/>
      <point x="177" y="54"/>
      <point x="177" y="297" type="curve" smooth="yes"/>
      <point x="177" y="688" type="line"/>
      <point x="95" y="688" type="line"/>
      <point x="95" y="326" type="line" smooth="yes"/>
      <point x="95" y="66"/>
      <point x="144" y="-8"/>
    </contour>
  </outline>
</glyph>
<glyph name="V" format="2">
  <advance width="508"/>
  <unicode hex="0056"/>
  <outline>
    <contour>
      <point x="220" y="0" type="line"/>
      <point x="293" y="0" type="line"/>
      <point x="498" y="688" type="line"/>
      <point x="487" y="688" type="line"/>
      <point x="292" y="32" type="line"/>
      <point x="96" y="688" type="line"/>
      <point x="10" y="688" type="line"/>
    </contour>
  </outline>
</glyph>
<glyph name="W" format="2">
  <advance width="660"/>
  <unicode hex="0057"/>
  <outline>
    <contour>
      <point x="139" y="0" type="line"/>
      <point x="208" y="0" type="line"/>
      <point x="331" y="624" type="line"/>
      <point x="452" y="0" type="line"/>
      <point x="521" y="0" type="line"/>
      <point x="650" y="688" type="line"/>
      <point x="640" y="688" type="line"/>
      <point x="522" y="58" type="line"/>
      <point x="399" y="688" type="line"/>
      <point x="334" y="688" type="line"/>
      <point x="209" y="58" type="line"/>
      <point x="92" y="688" type="line"/>
      <point x="10" y="688" type="line"/>
    </contour>
  </outline>
</glyph>
<glyph name="X" format="2">
  <advance width="525"/>
  <unicode hex="0058"/>
  <anchor x="295" y="0" name="bottom"/>
  <anchor x="295" y="510" name="top"/>
  <outline>
    <contour>
      <point x="411" y="0" type="line"/>
      <point x="505" y="0" type="line"/>
      <point x="124" y="688" type="line"/>
      <point x="30" y="688" type="line"/>
    </contour>
    <contour>
      <point x="20" y="0" type="line"/>
      <point x="32" y="0" type="line"/>
      <point x="495" y="688" type="line"/>
      <point x="483" y="688" type="line"/>
    </contour>
  </outline>
</glyph>
<glyph name="Y" format="2">
  <advance width="484"/>
  <unicode hex="0059"/>
  <anchor x="256" y="0" name="bottom"/>
  <anchor x="256" y="688" name="top"/>
  <anchor x="549" y="688" name="topleft"/>
  <outline>
    <contour>
      <point x="201" y="0" type="line"/>
      <point x="283" y="0" type="line"/>
      <point x="283" y="342" type="line"/>
      <point x="259" y="289" type="line"/>
      <point x="474" y="688" type="line"/>
      <point x="463" y="688" type="line"/>
      <point x="280" y="350" type="line"/>
      <point x="104" y="688" type="line"/>
      <point x="10" y="688" type="line"/>
      <point x="225" y="289" type="line"/>
      <point x="201" y="342" type="line"/>
    </contour>
  </outline>
</glyph>
<glyph name="Z" format="2">
  <advance width="539"/>
  <unicode hex="005A"/>
  <anchor x="46" y="0" name="bottom"/>
  <anchor x="46" y="344" name="center"/>
  <anchor x="46" y="688" name="top"/>
  <outline>
    <contour>
      <point x="50" y="0" type="line"/>
      <point x="489" y="0" type="line"/>
      <point x="489" y="74" type="line"/>
      <point x="68" y="74" type="line"/>
      <point x="482" y="622" type="line"/>
      <point x="482" y="688" type="line"/>
      <point x="63" y="688" type="line"/>
      <point x="63" y="614" type="line"/>
      <point x="464" y="614" type="line"/>
      <point x="50" y="66" type="line"/>
    </contour>
  </outline>
</glyph>
<glyph name="bracketleft" format="2">
  <advance width="336.17391"/>
  <unicode hex="005B"/>
  <outline>
    <contour>
      <point x="99.783" y="-150" type="line"/>
      <point x="294.543" y="-150" type="line"/>
      <point x="294.543" y="-90.37" type="line"/>
      <point x="175.543" y="-86.37" type="line"/>
      <point x="175.543" y="679.37" type="line"/>
      <point x="294.543" y="683.37" type="line"/>
      <point x="294.543" y="743" type="line"/>
      <point x="99.783" y="743" type="line"/>
    </contour>
  </outline>
</glyph>
<glyph name="a" format="2">
  <advance width="586"/>
  <unicode hex="0061"/>
  <anchor x="293" y="0" name="bottom"/>
  <anchor x="527" y="10" name="ogonek"/>
  <anchor x="293" y="510" name="top"/>
  <outline>
    <contour>
      <point x="235" y="-8" type="curve" smooth="yes"/>
      <point x="328" y="-8"/>
      <point x="384" y="21"/>
      <point x="408" y="83" type="curve"/>
      <point x="412" y="83" type="line"/>
      <point x="421" y="0" type="line"/>
      <point x="491" y="0" type="line"/>
      <point x="491" y="279" type="line" smooth="yes"/>
      <point x="491" y="486"/>
      <point x="463" y="518"/>
      <point x="286" y="518" type="curve" smooth="yes"/>
      <point x="226" y="518"/>
      <point x="166" y="513"/>
      <point x="89" y="503" type="curve"/>
      <point x="89" y="493" type="line"/>
      <point x="153" y="503"/>
      <point x="214" y="508"/>
      <point x="286" y="508" type="curve" smooth="yes"/>
      <point x="398" y="508"/>
      <point x="409" y="488"/>
      <point x="409" y="287" type="curve" smooth="yes"/>
      <point x="409" y="238" type="line" smooth="yes"/>
      <point x="409" y="45"/>
      <point x="382" y="2"/>
      <point x="258" y="2" type="curve" smooth="yes"/>
      <point x="166" y="2"/>
      <point x="145" y="28"/>
      <point x="145" y="139" type="curve" smooth="yes"/>
      <point x="145" y="217"/>
      <point x="167" y="235"/>
      <point x="258" y="235" type="curve" smooth="yes"/>
      <point x="423" y="235" type="line"/>
      <point x="423" y="305" type="line"/>
      <point x="246" y="305" type="line" smooth="yes"/>
      <point x="110" y="305"/>
      <point x="63" y="261"/>
      <point x="63" y="133" type="curve" smooth="yes"/>
      <point x="63" y="31"/>
      <point x="111" y="-8"/>
    </contour>
  </outline>
</glyph>
<glyph name="b" format="2">
  <advance width="620"/>
  <unicode hex="0062"/>
  <anchor x="310" y="0" name="bottom"/>
  <anchor x="155" y="594" name="center"/>
  <anchor x="310" y="510" name="top"/>
  <outline>
    <contour>
      <point x="354" y="-8" type="curve" smooth="yes"/>
      <point x="521" y="-8"/>
      <point x="550" y="31"/>
      <point x="550" y="251" type="curve" smooth="yes"/>
      <point x="550" y="259" type="line" smooth="yes"/>
      <point x="550" y="479"/>
      <point x="521" y="518"/>
      <point x="354" y="518" type="curve" smooth="yes"/>
      <point x="263" y="518"/>
      <point x="211" y="487"/>
      <point x="186" y="417" type="curve"/>
      <point x="182" y="417" type="line"/>
      <point x="182" y="743" type="line"/>
      <point x="100" y="743" type="line"/>
      <point x="100" y="0" type="line"/>
      <point x="170" y="0" type="line"/>
      <point x="182" y="93" type="line"/>
      <point x="186" y="93" type="line"/>
      <point x="211" y="23"/>
      <point x="263" y="-8"/>
    </contour>
    <contour>
      <point x="344" y="2" type="curve" smooth="yes"/>
      <point x="227" y="2"/>
      <point x="182" y="69"/>
      <point x="182" y="244" type="curve" smooth="yes"/>
      <point x="182" y="266" type="line" smooth="yes"/>
      <point x="182" y="442"/>
      <point x="226" y="508"/>
      <point x="344" y="508" type="curve" smooth="yes"/>
      <point x="451" y="508"/>
      <point x="468" y="483"/>
      <point x="468" y="321" type="curve" smooth="yes"/>
      <point x="468" y="189" type="line" smooth="yes"/>
      <point x="468" y="27"/>
      <point x="451" y="2"/>
    </contour>
  </outline>
</glyph>
<glyph name="c" format="2">
  <advance width="436"/>
  <unicode hex="0063"/>
  <anchor x="236" y="0" name="bottom"/>
  <anchor x="236" y="510" name="top"/>
  <outline>
    <contour>
      <point x="271" y="-8" type="curve" smooth="yes"/>
      <point x="315" y="-8"/>
      <point x="364" y="-2"/>
      <point x="394" y="7" type="curve"/>
      <point x="394" y="20" type="line"/>
      <point x="365" y="10"/>
      <point x="311" y="2"/>
      <point x="266" y="2" type="curve" smooth="yes"/>
      <point x="160" y="2"/>
      <point x="152" y="18"/>
      <point x="152" y="231" type="curve" smooth="yes"/>
      <point x="152" y="279" type="line" smooth="yes"/>
      <point x="152" y="492"/>
      <point x="160" y="508"/>
      <point x="266" y="508" type="curve" smooth="yes"/>
      <point x="309" y="508"/>
      <point x="361" y="500"/>
      <point x="389" y="490" type="curve"/>
      <point x="389" y="503" type="line"/>
      <point x="360" y="512"/>
      <point x="313" y="518"/>
      <point x="271" y="518" type="curve" smooth="yes"/>
      <point x="100" y="518"/>
      <point x="70" y="479"/>
      <point x="70" y="259" type="curve" smooth="yes"/>
      <point x="70" y="251" type="line" smooth="yes"/>
      <point x="70" y="31"/>
      <point x="100" y="-8"/>
    </contour>
  </outline>
</glyph>
<glyph name="f" format="2">
  <advance width="306"/>
  <unicode hex="0066"/>
  <anchor x="162" y="0" name="bottom"/>
  <anchor x="162" y="743" name="top"/>
  <outline>
    <contour>
      <point x="105" y="0" type="line"/>
      <point x="187" y="0" type="line"/>
      <point x="187" y="598" type="line" smooth="yes"/>
      <point x="187" y="711"/>
      <point x="205" y="733"/>
      <point x="301" y="733" type="curve"/>
      <point x="301" y="743" type="line"/>
      <point x="148" y="743"/>
      <point x="105" y="710"/>
      <point x="105" y="591" type="curve" smooth="yes"/>
    </contour>
    <contour>
      <point x="20" y="500" type="line"/>
      <point x="122" y="500" type="line"/>
      <point x="122" y="510" type="line"/>
      <point x="20" y="510" type="line"/>
    </contour>
    <contour>
      <point x="171" y="500" type="line"/>
      <point x="301" y="500" type="line"/>
      <point x="301" y="510" type="line"/>
      <point x="171" y="510" type="line"/>
    </contour>
  </outline>
</glyph>
<glyph name="g" format="2">
  <advance width="620"/>
  <unicode hex="0067"/>
  <anchor x="302" y="-200" name="bottom"/>
  <anchor x="465" y="-84" name="center"/>
  <anchor x="302" y="510" name="top"/>
  <outline>
    <contour>
      <point x="315" y="-208" type="curve" smooth="yes"/>
      <point x="492" y="-208"/>
      <point x="520" y="-176"/>
      <point x="520" y="31" type="curve" smooth="yes"/>
      <point x="520" y="510" type="line"/>
      <point x="450" y="510" type="line"/>
      <point x="438" y="417" type="line"/>
      <point x="434" y="417" type="line"/>
      <point x="409" y="487"/>
      <point x="357" y="518"/>
      <point x="266" y="518" type="curve" smooth="yes"/>
      <point x="99" y="518"/>
      <point x="70" y="479"/>
      <point x="70" y="259" type="curve" smooth="yes"/>
      <point x="70" y="251" type="line" smooth="yes"/>
      <point x="70" y="31"/>
      <point x="99" y="-8"/>
      <point x="266" y="-8" type="curve" smooth="yes"/>
      <point x="357" y="-8"/>
      <point x="409" y="23"/>
      <point x="434" y="93" type="curve"/>
      <point x="438" y="93" type="line"/>
      <point x="438" y="23" type="line" smooth="yes"/>
      <point x="438" y="-178"/>
      <point x="427" y="-198"/>
      <point x="315" y="-198" type="curve" smooth="yes"/>
      <point x="243" y="-198"/>
      <point x="182" y="-193"/>
      <point x="118" y="-183" type="curve"/>
      <point x="118" y="-193" type="line"/>
      <point x="195" y="-203"/>
      <point x="255" y="-208"/>
    </contour>
    <contour>
      <point x="276" y="2" type="curve" smooth="yes"/>
      <point x="171" y="2"/>
      <point x="152" y="30"/>
      <point x="152" y="189" type="curve" smooth="yes"/>
      <point x="152" y="321" type="line" smooth="yes"/>
      <point x="152" y="480"/>
      <point x="171" y="508"/>
      <point x="276" y="508" type="curve" smooth="yes"/>
      <point x="393" y="508"/>
      <point x="438" y="441"/>
      <point x="438" y="266" type="curve" smooth="yes"/>
      <point x="438" y="244" type="line" smooth="yes"/>
      <point x="438" y="68"/>
      <point x="394" y="2"/>
    </contour>
  </outline>
</glyph>
<glyph name="h" format="2">
  <advance width="623"/>
  <unicode hex="0068"/>
  <anchor x="312" y="0" name="bottom"/>
  <anchor x="312" y="510" name="top"/>
  <outline>
    <contour>
      <point x="100" y="0" type="line"/>
      <point x="182" y="0" type="line"/>
      <point x="182" y="267" type="line" smooth="yes"/>
      <point x="182" y="464"/>
      <point x="209" y="508"/>
      <point x="333" y="508" type="curve" smooth="yes"/>
      <point x="429" y="508"/>
      <point x="446" y="472"/>
      <point x="446" y="268" type="curve" smooth="yes"/>
      <point x="446" y="0" type="line"/>
      <point x="528" y="0" type="line"/>
      <point x="528" y="280" type="line" smooth="yes"/>
      <point x="528" y="453"/>
      <point x="480" y="518"/>
      <point x="356" y="518" type="curve" smooth="yes"/>
      <point x="260" y="518"/>
      <point x="206" y="488"/>
      <point x="182" y="427" type="curve"/>
      <point x="182" y="743" type="line"/>
      <point x="100" y="743" type="line"/>
    </contour>
  </outline>
</glyph>
<glyph name="i" format="2">
  <advance width="282"/>
  <unicode hex="0069"/>
  <anchor x="141" y="0" name="bottom"/>
  <anchor x="182" y="0" name="ogonek"/>
  <anchor x="141" y="716" name="top"/>
  <outline>
    <contour>
      <point x="100" y="0" type="line"/>
      <point x="182" y="0" type="line"/>
      <point x="182" y="510" type="line"/>
      <point x="100" y="510" type="line"/>
    </contour>
    <contour>
      <point x="97" y="628" type="line"/>
      <point x="185" y="628" type="line"/>
      <point x="185" y="716" type="line"/>
      <point x="97" y="716" type="line"/>
    </contour>
  </outline>
</glyph>
<glyph name="k" format="2">
  <advance width="538"/>
  <unicode hex="006B"/>
  <anchor x="265" y="0" name="bottom"/>
  <anchor x="265" y="510" name="top"/>
  <outline>
    <contour>
      <point x="182" y="277" type="line"/>
      <point x="249" y="277" type="line"/>
      <point x="429" y="0" type="line"/>
      <point x="523" y="0" type="line"/>
      <point x="339" y="283" type="line"/>
      <point x="490" y="510" type="line"/>
      <point x="478" y="510" type="line"/>
      <point x="330" y="287" type="line"/>
      <point x="182" y="287" type="line"/>
    </contour>
    <contour>
      <point x="100" y="0" type="line"/>
      <point x="182" y="0" type="line"/>
      <point x="182" y="743" type="line"/>
      <point x="100" y="743" type="line"/>
    </contour>
  </outline>
</glyph>
<glyph name="m" format="2">
  <advance width="969"/>
  <unicode hex="006D"/>
  <anchor x="312" y="0" name="bottom"/>
  <anchor x="312" y="510" name="top"/>
  <outline>
    <contour>
      <point x="100" y="0" type="line"/>
      <point x="182" y="0" type="line"/>
      <point x="182" y="296" type="line" smooth="yes"/>
      <point x="182" y="441"/>
      <point x="231" y="508"/>
      <point x="336" y="508" type="curve" smooth="yes"/>
      <point x="425" y="508"/>
      <point x="446" y="475"/>
      <point x="446" y="337" type="curve" smooth="yes"/>
      <point x="446" y="0" type="line"/>
      <point x="528" y="0" type="line"/>
      <point x="528" y="296" type="line" smooth="yes"/>
      <point x="528" y="441"/>
      <point x="577" y="508"/>
      <point x="682" y="508" type="curve" smooth="yes"/>
      <point x="771" y="508"/>
      <point x="792" y="475"/>
      <point x="792" y="337" type="curve" smooth="yes"/>
      <point x="792" y="0" type="line"/>
      <point x="874" y="0" type="line"/>
      <point x="874" y="349" type="line" smooth="yes"/>
      <point x="874" y="479"/>
      <point x="832" y="518"/>
      <point x="695" y="518" type="curve" smooth="yes"/>
      <point x="605" y="518"/>
      <point x="553" y="489"/>
      <point x="524" y="427" type="curve"/>
      <point x="520" y="427" type="line"/>
      <point x="503" y="495"/>
      <point x="454" y="518"/>
      <point x="349" y="518" type="curve" smooth="yes"/>
      <point x="260" y="518"/>
      <point x="210" y="490"/>
      <point x="186" y="427" type="curve"/>
      <point x="182" y="427" type="line"/>
      <point x="170" y="510" type="line"/>
      <point x="100" y="510" type="line"/>
    </contour>
  </outline>
</glyph>
<glyph name="n" format="2">
  <advance width="623"/>
  <unicode hex="006E"/>
  <anchor x="312" y="0" name="bottom"/>
  <anchor x="312" y="510" name="top"/>
  <outline>
    <contour>
      <point x="100" y="0" type="line"/>
      <point x="182" y="0" type="line"/>
      <point x="182" y="267" type="line" smooth="yes"/>
      <point x="182" y="464"/>
      <point x="209" y="508"/>
      <point x="333" y="508" type="curve" smooth="yes"/>
      <point x="429" y="508"/>
      <point x="446" y="472"/>
      <point x="446" y="268" type="curve" smooth="yes"/>
      <point x="446" y="0" type="line"/>
      <point x="528" y="0" type="line"/>
      <point x="528" y="280" type="line" smooth="yes"/>
      <point x="528" y="453"/>
      <point x="480" y="518"/>
      <point x="356" y="518" type="curve" smooth="yes"/>
      <point x="261" y="518"/>
      <point x="207" y="488"/>
      <point x="183" y="427" type="curve"/>
      <point x="179" y="427" type="line"/>
      <point x="170" y="510" type="line"/>
      <point x="100" y="510" type="line"/>
    </contour>
  </outline>
</glyph>
<glyph name="q" format="2">
  <advance width="620"/>
  <unicode hex="0071"/>
  <anchor x="310" y="0" name="bottom"/>
  <anchor x="465" y="-84" name="center"/>
  <anchor x="310" y="510" name="top"/>
  <outline>
    <contour>
      <point x="438" y="-233" type="line"/>
      <point x="520" y="-233" type="line"/>
      <point x="520" y="510" type="line"/>
      <point x="450" y="510" type="line"/>
      <point x="438" y="417" type="line"/>
      <point x="434" y="417" type="line"/>
      <point x="409" y="487"/>
      <point x="357" y="518"/>
      <point x="266" y="518" type="curve" smooth="yes"/>
      <point x="99" y="518"/>
      <point x="70" y="479"/>
      <point x="70" y="259" type="curve" smooth="yes"/>
      <point x="70" y="251" type="line" smooth="yes"/>
      <point x="70" y="31"/>
      <point x="99" y="-8"/>
      <point x="266" y="-8" type="curve" smooth="yes"/>
      <point x="357" y="-8"/>
      <point x="409" y="23"/>
      <point x="434" y="93" type="curve"/>
      <point x="438" y="93" type="line"/>
    </contour>
    <contour>
      <point x="276" y="2" type="curve" smooth="yes"/>
      <point x="169" y="2"/>
      <point x="152" y="27"/>
      <point x="152" y="189" type="curve" smooth="yes"/>
      <point x="152" y="321" type="line" smooth="yes"/>
      <point x="152" y="483"/>
      <point x="169" y="508"/>
      <point x="276" y="508" type="curve" smooth="yes"/>
      <point x="393" y="508"/>
      <point x="438" y="441"/>
      <point x="438" y="266" type="curve" smooth="yes"/>
      <point x="438" y="244" type="line" smooth="yes"/>
      <point x="438" y="68"/>
      <point x="394" y="2"/>
    </contour>
  </outline>
</glyph>
<glyph name="r" format="2">
  <advance width="399"/>
  <unicode hex="0072"/>
  <anchor x="200" y="0" name="bottom"/>
  <anchor x="200" y="510" name="top"/>
  <outline>
    <contour>
      <point x="100" y="0" type="line"/>
      <point x="182" y="0" type="line"/>
      <point x="182" y="296" type="line" smooth="yes"/>
      <point x="182" y="441"/>
      <point x="239" y="508"/>
      <point x="357" y="508" type="curve" smooth="yes"/>
      <point x="370" y="508" type="line"/>
      <point x="370" y="518" type="line"/>
      <point x="268" y="518"/>
      <point x="214" y="490"/>
      <point x="186" y="427" type="curve"/>
      <point x="182" y="427" type="line"/>
      <point x="170" y="510" type="line"/>
      <point x="100" y="510" type="line"/>
    </contour>
  </outline>
</glyph>
<glyph name="s" format="2">
  <advance width="501"/>
  <unicode hex="0073"/>
  <anchor x="251" y="0" name="bottom"/>
  <anchor x="251" y="510" name="top"/>
  <outline>
    <contour>
      <point x="247" y="-8" type="curve" smooth="yes"/>
      <point x="389" y="-8"/>
      <point x="436" y="28"/>
      <point x="436" y="133" type="curve" smooth="yes"/>
      <point x="436" y="236"/>
      <point x="409" y="272"/>
      <point x="322" y="284" type="curve" smooth="yes"/>
      <point x="206" y="298" type="line" smooth="yes"/>
      <point x="156" y="305"/>
      <point x="147" y="316"/>
      <point x="147" y="377" type="curve" smooth="yes"/>
      <point x="147" y="484"/>
      <point x="169" y="508"/>
      <point x="260" y="508" type="curve" smooth="yes"/>
      <point x="311" y="508"/>
      <point x="377" y="502"/>
      <point x="414" y="493" type="curve"/>
      <point x="414" y="503" type="line"/>
      <point x="362" y="512"/>
      <point x="303" y="518"/>
      <point x="251" y="518" type="curve" smooth="yes"/>
      <point x="118" y="518"/>
      <point x="65" y="478"/>
      <point x="65" y="377" type="curve" smooth="yes"/>
      <point x="65" y="280"/>
      <point x="94" y="242"/>
      <point x="177" y="231" type="curve" smooth="yes"/>
      <point x="293" y="217" type="line" smooth="yes"/>
      <point x="348" y="209"/>
      <point x="354" y="199"/>
      <point x="354" y="133" type="curve" smooth="yes"/>
      <point x="354" y="27"/>
      <point x="333" y="2"/>
      <point x="240" y="2" type="curve" smooth="yes"/>
      <point x="184" y="2"/>
      <point x="111" y="8"/>
      <point x="70" y="17" type="curve"/>
      <point x="70" y="7" type="line"/>
      <point x="126" y="-2"/>
      <point x="191" y="-8"/>
    </contour>
  </outline>
</glyph>
<glyph name="t" format="2">
  <advance width="306"/>
  <unicode hex="0074"/>
  <anchor x="162" y="0" name="bottom"/>
  <anchor x="162" y="743" name="top"/>
  <outline>
    <contour>
      <point x="105" y="0" type="line"/>
      <point x="187" y="0" type="line"/>
      <point x="187" y="688" type="line"/>
      <point x="105" y="688" type="line"/>
    </contour>
    <contour>
      <point x="20" y="500" type="line"/>
      <point x="122" y="500" type="line"/>
      <point x="122" y="510" type="line"/>
      <point x="20" y="510" type="line"/>
    </contour>
    <contour>
      <point x="171" y="500" type="line"/>
      <point x="301" y="500" type="line"/>
      <point x="301" y="510" type="line"/>
      <point x="171" y="510" type="line"/>
    </contour>
  </outline>
</glyph>
<glyph name="u" format="2">
  <advance width="623"/>
  <unicode hex="0075"/>
  <anchor x="312" y="0" name="bottom"/>
  <anchor x="561" y="10" name="ogonek"/>
  <anchor x="312" y="510" name="top"/>
  <anchor x="603" y="510" name="topright"/>
  <outline>
    <contour>
      <point x="523" y="510" type="line"/>
      <point x="441" y="510" type="line"/>
      <point x="441" y="243" type="line" smooth="yes"/>
      <point x="441" y="46"/>
      <point x="414" y="2"/>
      <point x="290" y="2" type="curve" smooth="yes"/>
      <point x="194" y="2"/>
      <point x="177" y="38"/>
      <point x="177" y="242" type="curve" smooth="yes"/>
      <point x="177" y="510" type="line"/>
      <point x="95" y="510" type="line"/>
      <point x="95" y="230" type="line" smooth="yes"/>
      <point x="95" y="57"/>
      <point x="143" y="-8"/>
      <point x="267" y="-8" type="curve" smooth="yes"/>
      <point x="362" y="-8"/>
      <point x="416" y="22"/>
      <point x="440" y="83" type="curve"/>
      <point x="444" y="83" type="line"/>
      <point x="453" y="0" type="line"/>
      <point x="523" y="0" type="line"/>
    </contour>
  </outline>
</glyph>
<glyph name="v" format="2">
  <advance width="476"/>
  <unicode hex="0076"/>
  <anchor x="176" y="0" name="bottom"/>
  <anchor x="176" y="510" name="top"/>
  <outline>
    <contour>
      <point x="204" y="0" type="line"/>
      <point x="252" y="0" type="line"/>
      <point x="451" y="510" type="line"/>
      <point x="440" y="510" type="line"/>
      <point x="263" y="52" type="line"/>
      <point x="259" y="52" type="line"/>
      <point x="112" y="510" type="line"/>
      <point x="25" y="510" type="line"/>
    </contour>
  </outline>
</glyph>
<glyph name="w" format="2">
  <advance width="580"/>
  <unicode hex="0077"/>
  <anchor x="-563" y="0" name="bottom"/>
  <anchor x="-563" y="510" name="top"/>
  <outline>
    <contour>
      <point x="136" y="0" type="line"/>
      <point x="210" y="0" type="line"/>
      <point x="292" y="436" type="line"/>
      <point x="393" y="0" type="line"/>
      <point x="467" y="0" type="line"/>
      <point x="555" y="510" type="line"/>
      <point x="545" y="510" type="line"/>
      <point x="467" y="56" type="line"/>
      <point x="462" y="56" type="line"/>
      <point x="353" y="510" type="line"/>
      <point x="295" y="510" type="line"/>
      <point x="210" y="56" type="line"/>
      <point x="205" y="56" type="line"/>
      <point x="106" y="510" type="line"/>
      <point x="25" y="510" type="line"/>
    </contour>
  </outline>
</glyph>
<glyph name="x" format="2">
  <advance width="431"/>
  <unicode hex="0078"/>
  <anchor x="295" y="0" name="bottom"/>
  <anchor x="295" y="510" name="top"/>
  <outline>
    <contour>
      <point x="316" y="0" type="line"/>
      <point x="411" y="0" type="line"/>
      <point x="115" y="510" type="line"/>
      <point x="20" y="510" type="line"/>
    </contour>
    <contour>
      <point x="20" y="0" type="line"/>
      <point x="33" y="0" type="line"/>
      <point x="411" y="510" type="line"/>
      <point x="398" y="510" type="line"/>
    </contour>
  </outline>
</glyph>
<glyph name="y" format="2">
  <advance width="624"/>
  <unicode hex="0079"/>
  <anchor x="312" y="0" name="bottom"/>
  <anchor x="312" y="510" name="top"/>
  <outline>
    <contour>
      <point x="316" y="-208" type="curve" smooth="yes"/>
      <point x="502" y="-208"/>
      <point x="524" y="-169"/>
      <point x="524" y="51" type="curve" smooth="yes"/>
      <point x="524" y="510" type="line"/>
      <point x="442" y="510" type="line"/>
      <point x="442" y="244" type="line" smooth="yes"/>
      <point x="442" y="68"/>
      <point x="410" y="2"/>
      <point x="292" y="2" type="curve" smooth="yes"/>
      <point x="187" y="2"/>
      <point x="177" y="30"/>
      <point x="177" y="189" type="curve" smooth="yes"/>
      <point x="177" y="510" type="line"/>
      <point x="95" y="510" type="line"/>
      <point x="95" y="251" type="line" smooth="yes"/>
      <point x="95" y="31"/>
      <point x="122" y="-8"/>
      <point x="280" y="-8" type="curve" smooth="yes"/>
      <point x="365" y="-8"/>
      <point x="414" y="23"/>
      <point x="438" y="93" type="curve"/>
      <point x="442" y="93" type="line"/>
      <point x="442" y="31" type="line" smooth="yes"/>
      <point x="442" y="-174"/>
      <point x="437" y="-198"/>
      <point x="314" y="-198" type="curve" smooth="yes"/>
      <point x="241" y="-198"/>
      <point x="175" y="-190"/>
      <point x="127" y="-179" type="curve"/>
      <point x="127" y="-188" type="line"/>
      <point x="172" y="-200"/>
      <point x="244" y="-208"/>
    </contour>
  </outline>
</glyph>
<glyph name="z" format="2">
  <advance width="374"/>
  <unicode hex="007A"/>
  <anchor x="259.696" y="0" name="bottom"/>
  <anchor x="253.978" y="255" name="center"/>
  <anchor x="259.696" y="510" name="top"/>
  <outline>
    <contour>
      <point x="25" y="0" type="line"/>
      <point x="349" y="0" type="line"/>
      <point x="349" y="70" type="line"/>
      <point x="74" y="70" type="line"/>
      <point x="74" y="74" type="line"/>
      <point x="347" y="492" type="line"/>
      <point x="347" y="510" type="line"/>
      <point x="37" y="510" type="line"/>
      <point x="37" y="440" type="line"/>
      <point x="298" y="440" type="line"/>
      <point x="298" y="436" type="line"/>
      <point x="25" y="18" type="line"/>
    </contour>
  </outline>
</glyph>
<glyph name="acute" format="2">
  <advance width="188.86956"/>
  <unicode hex="00B4"/>
  <outline>
    <contour>
      <point x="0" y="594.587" type="line"/>
      <point x="60.152" y="594.587" type="line"/>
      <point x="188.87" y="730.304" type="line"/>
      <point x="188.87" y="735.304" type="line"/>
      <point x="101.022" y="735.304" type="line"/>
      <point x="0" y="599.587" type="line"/>
    </contour>
  </outline>
</glyph>
<glyph name="thorn" format="2">
  <advance width="590.02174"/>
  <unicode hex="00FE"/>
  <outline>
    <contour>
      <point x="86.413" y="-189.457" type="line"/>
      <point x="167.609" y="-189.457" type="line"/>
      <point x="167.609" y="64.761" type="line"/>
      <point x="173.239" y="64.761" type="line"/>
      <point x="201.043" y="9.109"/>
      <point x="257.326" y="-8"/>
      <point x="339.022" y="-8" type="curve" smooth="yes"/>
      <point x="485.652" y="-8"/>
      <point x="525.348" y="48.065"/>
      <point x="525.348" y="255.543" type="curve" smooth="yes"/>
      <point x="525.348" y="463.022"/>
      <point x="484.565" y="518"/>
      <point x="336.848" y="518" type="curve" smooth="yes"/>
      <point x="259.5" y="518"/>
      <point x="201.043" y="502.522"/>
      <point x="173.239" y="442.522" type="curve"/>
      <point x="167.609" y="442.522" type="line"/>
      <point x="167.609" y="743" type="line"/>
      <point x="86.413" y="743" type="line"/>
    </contour>
    <contour>
      <point x="305.109" y="64.761" type="curve" smooth="yes"/>
      <point x="235.674" y="64.761"/>
      <point x="197.261" y="83.326"/>
      <point x="179.239" y="132.587" type="curve" smooth="yes"/>
      <point x="169.152" y="158.5"/>
      <point x="167.609" y="199.522"/>
      <point x="167.609" y="255" type="curve" smooth="yes"/>
      <point x="167.609" y="312.283"/>
      <point x="168.696" y="355.478"/>
      <point x="182.87" y="386.5" type="curve" smooth="yes"/>
      <point x="200.609" y="428.761"/>
      <point x="239.391" y="445.783"/>
      <point x="305.109" y="445.783" type="curve" smooth="yes"/>
      <point x="427.13" y="445.783"/>
      <point x="443.609" y="423.848"/>
      <point x="443.609" y="255" type="curve" smooth="yes"/>
      <point x="443.609" y="86.152"/>
      <point x="427.13" y="64.761"/>
    </contour>
  </outline>
</glyph>
<glyph name="kgreenlandic" format="2">
  <advance width="536.84783"/>
  <unicode hex="0138"/>
  <anchor x="268.696" y="0" name="bottom"/>
  <anchor x="268.696" y="510" name="top"/>
  <outline>
    <contour>
      <point x="86.413" y="0" type="line"/>
      <point x="167.609" y="0" type="line"/>
      <point x="167.609" y="222.891" type="line"/>
      <point x="231.957" y="222.891" type="line"/>
      <point x="411.717" y="0" type="line"/>
      <point x="506.63" y="0" type="line"/>
      <point x="297.37" y="263.087" type="line"/>
      <point x="503.63" y="510" type="line"/>
      <point x="412.348" y="510" type="line"/>
      <point x="231.957" y="292.761" type="line"/>
      <point x="167.609" y="292.761" type="line"/>
      <point x="167.609" y="510" type="line"/>
      <point x="86.413" y="510" type="line"/>
    </contour>
  </outline>
</glyph>
<glyph name="lslash" format="2">
  <advance width="258.91304"/>
  <unicode hex="0142"/>
  <outline>
    <contour>
      <point x="88.587" y="0" type="line"/>
      <point x="169.783" y="0" type="line"/>
      <point x="169.783" y="349.565" type="line"/>
      <point x="230.63" y="371.848" type="line"/>
      <point x="230.63" y="440" type="line"/>
      <point x="169.783" y="417.717" type="line"/>
      <point x="169.783" y="743" type="line"/>
      <point x="88.587" y="743" type="line"/>
      <point x="88.587" y="387.87" type="line"/>
      <point x="29.109" y="367.043" type="line"/>
      <point x="29.109" y="299.435" type="line"/>
      <point x="88.587" y="320.261" type="line"/>
    </contour>
  </outline>
</glyph>
<glyph name="florin" format="2">
  <advance width="385.10869"/>
  <unicode hex="0192"/>
  <outline>
    <contour>
      <point x="-138.804" y="-191.087" type="line"/>
      <point x="27.717" y="-191.087"/>
      <point x="72.957" y="-185.457"/>
      <point x="116.674" y="15.609" type="curve" smooth="yes"/>
      <point x="206.891" y="441.043" type="line"/>
      <point x="339.087" y="441.043" type="line"/>
      <point x="353.152" y="510" type="line"/>
      <point x="206.522" y="510" type="line"/>
      <point x="217.957" y="491.739" type="line"/>
      <point x="223.326" y="518.674" type="line" smooth="yes"/>
      <point x="254.152" y="668.261"/>
      <point x="268.391" y="679.304"/>
      <point x="389.63" y="679.304" type="curve"/>
      <point x="403.152" y="742.457" type="line"/>
      <point x="218.587" y="742.457"/>
      <point x="187.109" y="719.587"/>
      <point x="143.587" y="521.413" type="curve" smooth="yes"/>
      <point x="137.304" y="492.826" type="line"/>
      <point x="155.196" y="510" type="line"/>
      <point x="36.652" y="510" type="line"/>
      <point x="22.587" y="441.043" type="line"/>
      <point x="126.239" y="441.043" type="line"/>
      <point x="28.957" y="-15.196" type="line" smooth="yes"/>
      <point x="6.739" y="-117.37"/>
      <point x="-18.109" y="-128.478"/>
      <point x="-125.283" y="-128.478" type="curve"/>
    </contour>
  </outline>
</glyph>
<glyph name="Oslashacute" format="2">
  <advance width="716.76087"/>
  <unicode hex="01FE"/>
  <anchor x="360.283" y="0" name="bottom"/>
  <anchor x="358.652" y="344" name="center"/>
  <anchor x="415.304" y="0" name="ogonek"/>
  <anchor x="360.283" y="688" name="top"/>
  <anchor x="20" y="688" name="topleft"/>
  <anchor x="475.804" y="688" name="topright"/>
  <outline>
    <contour>
      <point x="520.174" y="631.565" type="line"/>
      <point x="587.087" y="654.957" type="line"/>
      <point x="622.457" y="743" type="line"/>
      <point x="546.804" y="703.283" type="line"/>
    </contour>
    <contour>
      <point x="80.761" y="-55" type="line"/>
      <point x="147.652" y="-55" type="line"/>
      <point x="213.065" y="52.283" type="line"/>
      <point x="158.804" y="72.087" type="line"/>
    </contour>
    <component base="O"/>
    <component base="acutecomb.case" xOffset="307.348" yOffset="178"/>
  </outline>
</glyph>
<glyph name="jdotless" format="2">
  <advance width="282"/>
  <unicode hex="0237"/>
  <anchor x="141" y="-200" name="bottom"/>
  <anchor x="141" y="510" name="top"/>
  <outline>
    <contour>
      <point x="182" y="510" type="line"/>
      <point x="100" y="510" type="line"/>
      <point x="100" y="-55" type="line" smooth="yes"/>
      <point x="100" y="-168"/>
      <point x="79" y="-190"/>
      <point x="-32" y="-190" type="curve"/>
      <point x="-32" y="-200" type="line"/>
      <point x="135" y="-200"/>
      <point x="182" y="-167"/>
      <point x="182" y="-48" type="curve" smooth="yes"/>
    </contour>
  </outline>
</glyph>
<glyph name="breveinvertedcomb" format="2">
  <advance width="275.47826"/>
  <unicode hex="0311"/>
  <anchor x="138.239" y="510" name="_top"/>
  <anchor x="138.239" y="688" name="top"/>
  <outline>
    <contour>
      <point x="138.783" y="739.283" type="curve" smooth="yes"/>
      <point x="8.065" y="739.283"/>
      <point x="0" y="679.196"/>
      <point x="0" y="595.022" type="curve"/>
      <point x="53.283" y="595.022" type="line"/>
      <point x="53.283" y="655.348"/>
      <point x="55.283" y="687.913"/>
      <point x="138.783" y="687.913" type="curve" smooth="yes"/>
      <point x="222.283" y="687.913"/>
      <point x="222.739" y="655.348"/>
      <point x="222.739" y="595.022" type="curve"/>
      <point x="275.478" y="595.022" type="line"/>
      <point x="275.478" y="679.196"/>
      <point x="268.957" y="739.283"/>
    </contour>
  </outline>
</glyph>
<glyph name="dotbelowcomb" format="2">
  <advance width="72.26087"/>
  <unicode hex="0323"/>
  <anchor x="36.13" y="0" name="_bottom"/>
  <anchor x="36.13" y="-192.435" name="bottom"/>
  <outline>
    <contour>
      <point x="0" y="-192.435" type="line"/>
      <point x="72.261" y="-192.435" type="line"/>
      <point x="72.261" y="-116.413" type="line"/>
      <point x="0" y="-116.413" type="line"/>
    </contour>
  </outline>
</glyph>
<glyph name="minute" format="2">
  <advance width="208.67391"/>
  <unicode hex="2032"/>
  <outline>
    <contour>
      <point x="53.913" y="383.674" type="line"/>
      <point x="110.065" y="383.674" type="line"/>
      <point x="143.674" y="552.043" type="line"/>
      <point x="153.13" y="688" type="line"/>
      <point x="74.457" y="688" type="line"/>
    </contour>
  </outline>
</glyph>
<glyph name="guilsinglright" format="2">
  <advance width="307"/>
  <unicode hex="203A"/>
  <outline>
    <contour>
      <point x="70" y="99" type="line"/>
      <point x="129" y="99" type="line"/>
      <point x="261" y="304" type="line"/>
      <point x="129" y="510" type="line"/>
      <point x="70" y="510" type="line"/>
      <point x="184" y="304" type="line"/>
    </contour>
  </outline>
</glyph>
<glyph name="Saltillo" format="2">
  <advance width="255.56522"/>
  <unicode hex="A78B"/>
  <outline>
    <contour>
      <point x="89.13" y="283.674" type="line"/>
      <point x="143.913" y="283.674" type="line"/>
      <point x="166.435" y="510" type="line"/>
      <point x="166.435" y="688" type="line"/>
      <point x="89.13" y="688" type="line"/>
    </contour>
  </outline>
</glyph>
<glyph name="fi" format="2">
  <advance width="626.28261"/>
  <unicode hex="FB01"/>
  <anchor x="313.141" y="0" name="caret_1"/>
  <outline>
    <contour>
      <point x="129.848" y="0" type="line"/>
      <point x="211.043" y="0" type="line"/>
      <point x="211.043" y="441.043" type="line"/>
      <point x="342.696" y="441.043" type="line"/>
      <point x="342.696" y="510" type="line"/>
      <point x="211.043" y="510" type="line"/>
      <point x="211.043" y="604.913" type="line" smooth="yes"/>
      <point x="211.043" y="668.739"/>
      <point x="233.435" y="679.848"/>
      <point x="342.696" y="679.848" type="curve"/>
      <point x="342.696" y="742.457" type="line"/>
      <point x="186.043" y="742.457"/>
      <point x="129.848" y="733.174"/>
      <point x="129.848" y="590.761" type="curve" smooth="yes"/>
      <point x="129.848" y="510" type="line"/>
      <point x="26.196" y="510" type="line"/>
      <point x="26.196" y="441.043" type="line"/>
      <point x="129.848" y="441.043" type="line"/>
    </contour>
    <contour>
      <point x="458.674" y="0" type="line"/>
      <point x="539.87" y="0" type="line"/>
      <point x="539.87" y="510" type="line"/>
      <point x="458.674" y="510" type="line"/>
    </contour>
    <contour>
      <point x="455.761" y="653.739" type="line"/>
      <point x="542.783" y="653.739" type="line"/>
      <point x="542.783" y="743" type="line"/>
      <point x="455.761" y="743" type="line"/>
    </contour>
  </outline>
</glyph>
<glyph name="M.001" format="2">
  <advance width="816"/>
  <anchor x="392" y="0" name="bottom"/>
  <anchor x="392" y="688" name="top"/>
  <outline>
    <contour>
      <point x="100" y="0" type="line"/>
      <point x="110" y="0" type="line"/>
      <point x="110" y="603" type="line"/>
      <point x="114" y="603" type="line"/>
      <point x="365" y="0" type="line"/>
      <point x="405" y="0" type="line"/>
      <point x="630" y="603" type="line"/>
      <point x="634" y="603" type="line"/>
      <point x="634" y="0" type="line"/>
      <point x="716" y="0" type="line"/>
      <point x="716" y="688" type="line"/>
      <point x="651" y="688" type="line"/>
      <point x="422" y="75" type="line"/>
      <point x="418" y="75" type="line"/>
      <point x="166" y="688" type="line"/>
      <point x="100" y="688" type="line"/>
    </contour>
  </outline>
</glyph>
<glyph name="R.ss01" format="2">
  <advance width="686.56522"/>
  <anchor x="343.283" y="0" name="bottom"/>
  <anchor x="343.283" y="688" name="top"/>
  <outline>
    <contour>
      <point x="99.783" y="0" type="line"/>
      <point x="185.783" y="0" type="line"/>
      <point x="185.783" y="314.739" type="line"/>
      <point x="149.13" y="276.261" type="line"/>
      <point x="386.978" y="276.261" type="line" smooth="yes"/>
      <point x="508.609" y="276.261"/>
      <point x="511.239" y="219.826"/>
      <point x="516.239" y="152" type="curve" smooth="yes"/>
      <point x="526.783" y="0" type="line"/>
      <point x="611.783" y="0" type="line"/>
      <point x="600.783" y="171" type="line" smooth="yes"/>
      <point x="594.152" y="274"/>
      <point x="559.696" y="299.913"/>
      <point x="489.783" y="315.457" type="curve"/>
      <point x="489.783" y="319.457" type="line"/>
      <point x="566.239" y="337.087"/>
      <point x="607.783" y="377.913"/>
      <point x="607.783" y="500.913" type="curve" smooth="yes"/>
      <point x="607.783" y="623.913"/>
      <point x="564.891" y="688"/>
      <point x="420.522" y="688" type="curve" smooth="yes"/>
      <point x="99.783" y="688" type="line"/>
    </contour>
    <contour>
      <point x="185.783" y="350.478" type="line"/>
      <point x="185.783" y="613.783" type="line"/>
      <point x="389.261" y="613.783" type="line" smooth="yes"/>
      <point x="513.152" y="613.783"/>
      <point x="520.696" y="569.522"/>
      <point x="520.696" y="482.13" type="curve" smooth="yes"/>
      <point x="520.696" y="397.826"/>
      <point x="501.043" y="350.478"/>
      <point x="384.435" y="350.478" type="curve" smooth="yes"/>
    </contour>
  </outline>
</glyph>
<glyph name="Z.001" format="2">
  <advance width="503"/>
  <anchor x="136" y="0" name="bottom"/>
  <anchor x="136" y="344" name="center"/>
  <anchor x="136" y="688" name="top"/>
  <outline>
    <contour>
      <point x="50" y="0" type="line"/>
      <point x="453" y="0" type="line"/>
      <point x="453" y="74" type="line"/>
      <point x="99" y="74" type="line"/>
      <point x="448" y="653" type="line"/>
      <point x="448" y="688" type="line"/>
      <point x="58" y="688" type="line"/>
      <point x="58" y="614" type="line"/>
      <point x="399" y="614" type="line"/>
      <point x="50" y="35" type="line"/>
    </contour>
  </outline>
</glyph>
<glyph name="a.001" format="2">
  <advance width="586"/>
  <anchor x="293" y="0" name="bottom"/>
  <anchor x="527" y="10" name="ogonek"/>
  <anchor x="293" y="510" name="top"/>
  <outline>
    <contour>
      <point x="235" y="-8" type="curve" smooth="yes"/>
      <point x="328" y="-8"/>
      <point x="384" y="21"/>
      <point x="408" y="83" type="curve"/>
      <point x="412" y="83" type="line"/>
      <point x="421" y="0" type="line"/>
      <point x="491" y="0" type="line"/>
      <point x="491" y="259" type="line" smooth="yes"/>
      <point x="491" y="479"/>
      <point x="459" y="518"/>
      <point x="281" y="518" type="curve" smooth="yes"/>
      <point x="210" y="518"/>
      <point x="131" y="510"/>
      <point x="89" y="498" type="curve"/>
      <point x="89" y="489" type="line"/>
      <point x="135" y="500"/>
      <point x="212" y="508"/>
      <point x="279" y="508" type="curve" smooth="yes"/>
      <point x="406" y="508"/>
      <point x="409" y="504"/>
      <point x="409" y="299" type="curve" smooth="yes"/>
      <point x="409" y="281" type="line" smooth="yes"/>
      <point x="409" y="56"/>
      <point x="381" y="7"/>
      <point x="253" y="7" type="curve" smooth="yes"/>
      <point x="161" y="7"/>
      <point x="145" y="26"/>
      <point x="145" y="133" type="curve" smooth="yes"/>
      <point x="145" y="218"/>
      <point x="164" y="235"/>
      <point x="258" y="235" type="curve" smooth="yes"/>
      <point x="418" y="235" type="line"/>
      <point x="418" y="305" type="line"/>
      <point x="246" y="305" type="line" smooth="yes"/>
      <point x="110" y="305"/>
      <point x="63" y="260"/>
      <point x="63" y="133" type="curve" smooth="yes"/>
      <point x="63" y="31"/>
      <point x="110" y="-8"/>
    </contour>
  </outline>
</glyph>
<glyph name="asterisk.ss02" format="2">
  <advance width="817"/>
  <outline>
    <contour>
      <point x="178" y="-14" type="line"/>
      <point x="409" y="156" type="line"/>
      <point x="640" y="-14" type="line"/>
      <point x="550" y="262" type="line"/>
      <point x="782" y="436" type="line"/>
      <point x="494" y="436" type="line"/>
      <point x="409" y="705" type="line"/>
      <point x="322" y="436" type="line"/>
      <point x="35" y="436" type="line"/>
      <point x="269" y="262" type="line"/>
    </contour>
  </outline>
</glyph>
<glyph name="brevecomb_tildecomb" format="2">
  <advance width="341.47826"/>
  <anchor x="171.783" y="510" name="_top"/>
  <anchor x="171.783" y="860.283" name="top"/>
  <outline>
    <contour>
      <point x="170.239" y="586.13" type="curve" smooth="yes"/>
      <point x="300.957" y="586.13"/>
      <point x="309.022" y="646.217"/>
      <point x="309.022" y="730.391" type="curve"/>
      <point x="255.739" y="730.391" type="line"/>
      <point x="255.739" y="670.065"/>
      <point x="253.739" y="637.5"/>
      <point x="170.239" y="637.5" type="curve" smooth="yes"/>
      <point x="86.739" y="637.5"/>
      <point x="86.283" y="670.065"/>
      <point x="86.283" y="730.391" type="curve"/>
      <point x="33.543" y="730.391" type="line"/>
      <point x="33.543" y="646.217"/>
      <point x="40.065" y="586.13"/>
    </contour>
    <contour>
      <point x="0" y="774.261" type="curve"/>
      <point x="47.652" y="774.261" type="line"/>
      <point x="47.652" y="814.913"/>
      <point x="49.935" y="828.652"/>
      <point x="78.848" y="828.652" type="curve" smooth="yes"/>
      <point x="104.326" y="828.652"/>
      <point x="131.239" y="818.826"/>
      <point x="159.152" y="809.457" type="curve" smooth="yes"/>
      <point x="194.978" y="797.63"/>
      <point x="228.065" y="785.261"/>
      <point x="268.065" y="785.261" type="curve" smooth="yes"/>
      <point x="334.196" y="785.261"/>
      <point x="341.478" y="821.13"/>
      <point x="341.478" y="899.283" type="curve"/>
      <point x="294.37" y="899.283" type="line"/>
      <point x="294.37" y="858.63"/>
      <point x="292.087" y="844.891"/>
      <point x="263.174" y="844.891" type="curve" smooth="yes"/>
      <point x="236.065" y="844.891"/>
      <point x="210.783" y="854.717"/>
      <point x="182.87" y="864.087" type="curve" smooth="yes"/>
      <point x="147.043" y="875.913"/>
      <point x="110.957" y="888.283"/>
      <point x="73.957" y="888.283" type="curve" smooth="yes"/>
      <point x="7.283" y="888.283"/>
      <point x="0" y="852.413"/>
    </contour>
  </outline>
</glyph>
<glyph name="c.001" format="2">
  <advance width="472"/>
  <anchor x="236" y="0" name="bottom"/>
  <anchor x="236" y="510" name="top"/>
  <outline>
    <contour>
      <point x="289" y="-8" type="curve" smooth="yes"/>
      <point x="339" y="-8"/>
      <point x="396" y="-2"/>
      <point x="430" y="7" type="curve"/>
      <point x="430" y="20" type="line"/>
      <point x="393" y="9"/>
      <point x="332" y="2"/>
      <point x="284" y="2" type="curve" smooth="yes"/>
      <point x="161" y="2"/>
      <point x="152" y="18"/>
      <point x="152" y="231" type="curve" smooth="yes"/>
      <point x="152" y="279" type="line" smooth="yes"/>
      <point x="152" y="492"/>
      <point x="161" y="508"/>
      <point x="284" y="508" type="curve" smooth="yes"/>
      <point x="330" y="508"/>
      <point x="389" y="501"/>
      <point x="425" y="490" type="curve"/>
      <point x="425" y="503" type="line"/>
      <point x="392" y="512"/>
      <point x="337" y="518"/>
      <point x="289" y="518" type="curve" smooth="yes"/>
      <point x="103" y="518"/>
      <point x="70" y="479"/>
      <point x="70" y="259" type="curve" smooth="yes"/>
      <point x="70" y="251" type="line" smooth="yes"/>
      <point x="70" y="31"/>
      <point x="103" y="-8"/>
    </contour>
  </outline>
</glyph>
<glyph name="e.001" format="2">
  <advance width="566"/>
  <anchor x="283" y="0" name="bottom"/>
  <anchor x="509" y="10" name="ogonek"/>
  <anchor x="283" y="510" name="top"/>
  <outline>
    <contour>
      <point x="289" y="-8" type="curve" smooth="yes"/>
      <point x="360" y="-8"/>
      <point x="444" y="0"/>
      <point x="490" y="12" type="curve"/>
      <point x="490" y="21" type="line"/>
      <point x="436" y="8"/>
      <point x="353" y="2"/>
      <point x="289" y="2" type="curve" smooth="yes"/>
      <point x="161" y="2"/>
      <point x="152" y="35"/>
      <point x="152" y="248" type="curve" smooth="yes"/>
      <point x="152" y="253" type="line" smooth="yes"/>
      <point x="152" y="477"/>
      <point x="161" y="508"/>
      <point x="289" y="508" type="curve" smooth="yes"/>
      <point x="412" y="508"/>
      <point x="421" y="487"/>
      <point x="421" y="275" type="curve" smooth="yes"/>
      <point x="421" y="252" type="line"/>
      <point x="457" y="288" type="line"/>
      <point x="110" y="288" type="line"/>
      <point x="110" y="218" type="line"/>
      <point x="503" y="218" type="line"/>
      <point x="503" y="259" type="line" smooth="yes"/>
      <point x="503" y="479"/>
      <point x="471" y="518"/>
      <point x="289" y="518" type="curve" smooth="yes"/>
      <point x="103" y="518"/>
      <point x="70" y="479"/>
      <point x="70" y="259" type="curve" smooth="yes"/>
      <point x="70" y="251" type="line" smooth="yes"/>
      <point x="70" y="31"/>
      <point x="103" y="-8"/>
    </contour>
  </outline>
</glyph>
<glyph name="n.001" format="2">
  <advance width="623"/>
  <anchor x="312" y="0" name="bottom"/>
  <anchor x="312" y="510" name="top"/>
  <outline>
    <contour>
      <point x="100" y="0" type="line"/>
      <point x="182" y="0" type="line"/>
      <point x="182" y="308" type="line" smooth="yes"/>
      <point x="182" y="451"/>
      <point x="228" y="508"/>
      <point x="342" y="508" type="curve" smooth="yes"/>
      <point x="430" y="508"/>
      <point x="446" y="478"/>
      <point x="446" y="346" type="curve" smooth="yes"/>
      <point x="446" y="0" type="line"/>
      <point x="528" y="0" type="line"/>
      <point x="528" y="319" type="line" smooth="yes"/>
      <point x="528" y="472"/>
      <point x="486" y="518"/>
      <point x="345" y="518" type="curve" smooth="yes"/>
      <point x="256" y="518"/>
      <point x="206" y="493"/>
      <point x="183" y="437" type="curve"/>
      <point x="179" y="437" type="line"/>
      <point x="170" y="510" type="line"/>
      <point x="100" y="510" type="line"/>
    </contour>
  </outline>
</glyph>
<glyph name="o.001" format="2">
  <advance width="348"/>
  <anchor x="174" y="0" name="bottom"/>
  <anchor x="174" y="255" name="center"/>
  <anchor x="218" y="0" name="ogonek"/>
  <anchor x="174" y="510" name="top"/>
  <anchor x="211" y="510" name="topright"/>
  <outline>
    <contour>
      <point x="174" y="-8" type="curve" smooth="yes"/>
      <point x="294" y="-8"/>
      <point x="316" y="31"/>
      <point x="316" y="251" type="curve" smooth="yes"/>
      <point x="316" y="259" type="line" smooth="yes"/>
      <point x="316" y="479"/>
      <point x="294" y="518"/>
      <point x="174" y="518" type="curve" smooth="yes"/>
      <point x="54" y="518"/>
      <point x="32" y="479"/>
      <point x="32" y="259" type="curve" smooth="yes"/>
      <point x="32" y="251" type="line" smooth="yes"/>
      <point x="32" y="31"/>
      <point x="54" y="-8"/>
    </contour>
    <contour>
      <point x="174" y="62" type="curve" smooth="yes"/>
      <point x="118" y="62"/>
      <point x="114" y="73"/>
      <point x="114" y="231" type="curve" smooth="yes"/>
      <point x="114" y="279" type="line" smooth="yes"/>
      <point x="114" y="436"/>
      <point x="118" y="448"/>
      <point x="174" y="448" type="curve" smooth="yes"/>
      <point x="230" y="448"/>
      <point x="234" y="436"/>
      <point x="234" y="279" type="curve" smooth="yes"/>
      <point x="234" y="231" type="line" smooth="yes"/>
      <point x="234" y="74"/>
      <point x="230" y="62"/>
    </contour>
  </outline>
</glyph>
<glyph name="o.002" format="2">
  <advance width="588"/>
  <anchor x="294" y="0" name="bottom"/>
  <anchor x="294" y="255" name="center"/>
  <anchor x="529" y="10" name="ogonek"/>
  <anchor x="294" y="510" name="top"/>
  <anchor x="568" y="510" name="topright"/>
  <outline>
    <contour>
      <point x="294" y="-8" type="curve" smooth="yes"/>
      <point x="484" y="-8"/>
      <point x="518" y="31"/>
      <point x="518" y="251" type="curve" smooth="yes"/>
      <point x="518" y="259" type="line" smooth="yes"/>
      <point x="518" y="479"/>
      <point x="484" y="518"/>
      <point x="294" y="518" type="curve" smooth="yes"/>
      <point x="104" y="518"/>
      <point x="70" y="479"/>
      <point x="70" y="259" type="curve" smooth="yes"/>
      <point x="70" y="251" type="line" smooth="yes"/>
      <point x="70" y="31"/>
      <point x="104" y="-8"/>
    </contour>
    <contour>
      <point x="294" y="2" type="curve" smooth="yes"/>
      <point x="163" y="2"/>
      <point x="152" y="16"/>
      <point x="152" y="224" type="curve" smooth="yes"/>
      <point x="152" y="286" type="line" smooth="yes"/>
      <point x="152" y="494"/>
      <point x="163" y="508"/>
      <point x="294" y="508" type="curve" smooth="yes"/>
      <point x="425" y="508"/>
      <point x="436" y="494"/>
      <point x="436" y="286" type="curve" smooth="yes"/>
      <point x="436" y="224" type="line" smooth="yes"/>
      <point x="436" y="16"/>
      <point x="425" y="2"/>
    </contour>
  </outline>
</glyph>
<glyph name="one.dnom" format="2">
  <advance width="225.34783"/>
  <outline>
    <contour>
      <point x="103.13" y="0" type="line"/>
      <point x="162.413" y="0" type="line"/>
      <point x="162.413" y="377.087" type="line"/>
      <point x="119.283" y="377.087" type="line"/>
      <point x="21.109" y="326.63" type="line"/>
      <point x="21.109" y="275.326" type="line"/>
      <point x="103.13" y="313.435" type="line"/>
    </contour>
  </outline>
</glyph>
<glyph name="six.tosf" format="2">
  <advance width="620"/>
  <outline>
    <contour>
      <point x="323.739" y="-7" type="curve" smooth="yes"/>
      <point x="513.717" y="-7"/>
      <point x="550.522" y="38.522"/>
      <point x="550.522" y="185.522" type="curve" smooth="yes"/>
      <point x="550.522" y="327.435"/>
      <point x="491.087" y="350.957"/>
      <point x="339.13" y="350.957" type="curve" smooth="yes"/>
      <point x="242.022" y="350.957"/>
      <point x="190.435" y="334.609"/>
      <point x="167.326" y="307.587" type="curve"/>
      <point x="161.326" y="307.587" type="line"/>
      <point x="161.326" y="492.739"/>
      <point x="182.065" y="523.674"/>
      <point x="346.435" y="523.674" type="curve" smooth="yes"/>
      <point x="389.804" y="523.674"/>
      <point x="460.804" y="519.13"/>
      <point x="515.522" y="513.13" type="curve"/>
      <point x="515.522" y="576.283" type="line"/>
      <point x="457.174" y="584.913"/>
      <point x="378.37" y="592"/>
      <point x="329.739" y="592" type="curve" smooth="yes"/>
      <point x="209.543" y="592"/>
      <point x="140.63" y="573.37"/>
      <point x="108.739" y="505.696" type="curve" smooth="yes"/>
      <point x="85.304" y="457.413"/>
      <point x="78.5" y="392.043"/>
      <point x="78.5" y="286.717" type="curve" smooth="yes"/>
      <point x="78.5" y="185.652"/>
      <point x="83.217" y="123.109"/>
      <point x="98.935" y="82.022" type="curve" smooth="yes"/>
      <point x="128.565" y="3.543"/>
      <point x="196.565" y="-7"/>
    </contour>
    <contour>
      <point x="316.739" y="60.783" type="curve" smooth="yes"/>
      <point x="198.717" y="60.783"/>
      <point x="164.326" y="72.261"/>
      <point x="164.326" y="191.826" type="curve" smooth="yes"/>
      <point x="164.326" y="257.609"/>
      <point x="177.522" y="283.717"/>
      <point x="316.739" y="283.717" type="curve" smooth="yes"/>
      <point x="444.304" y="283.717"/>
      <point x="469.87" y="275.717"/>
      <point x="469.87" y="169.522" type="curve" smooth="yes"/>
      <point x="469.87" y="71.065"/>
      <point x="440.935" y="60.783"/>
    </contour>
  </outline>
</glyph>
<glyph name="v.001" format="2">
  <advance width="457"/>
  <anchor x="179" y="0" name="bottom"/>
  <anchor x="179" y="510" name="top"/>
  <outline>
    <contour>
      <point x="219" y="0" type="line"/>
      <point x="253" y="0" type="line"/>
      <point x="430" y="510" type="line"/>
      <point x="419" y="510" type="line"/>
      <point x="272" y="85" type="line"/>
      <point x="268" y="85" type="line"/>
      <point x="112" y="510" type="line"/>
      <point x="27" y="510" type="line"/>
    </contour>
  </outline>
</glyph>
